<svg width="32" height="32" viewBox="0 0 32 32" fill="none" xmlns="http://www.w3.org/2000/svg">
<rect width="32" height="32" rx="16" fill="#E9EBFD"/>
<path d="M20.455 7.53223L14.5252 11.888L24.4444 11.8744C23.7659 14.1948 22.5517 19.0063 22.3683 19.5411C22.2054 20.016 21.8798 20.0839 21.6084 20.0839H13.3853L11.9076 16.2226L7.90332 19.1244L9.80303 24.399C12.5124 24.4668 18.71 24.5564 21.8255 24.3718C24.941 24.1873 26.2627 21.5901 26.5341 20.3146C26.8416 19.2155 27.6766 16.0809 28.5559 12.3358C29.4352 8.59064 27.113 7.57293 25.842 7.53223H20.455Z" fill="#090A0A"/>
<path d="M10.7539 7.51758H6.31668L3.25 19.3636L6.88659 16.704L7.66005 18.6852L11.7037 15.727L10.9167 13.7595L19.4654 7.51758H13.0878L10.1568 9.70225L10.7539 7.51758Z" fill="#3053EC"/>
</svg>
