<svg width="125" height="84" viewBox="0 0 125 84" fill="none" xmlns="http://www.w3.org/2000/svg">
<path d="M83.6645 0.827148L54.8298 22.0078L103.064 21.9418C99.7644 33.225 93.8598 56.6215 92.9681 59.2224C92.1763 61.5318 90.5927 61.8617 89.2731 61.8617H49.2872L42.2929 44.1122L22.6299 58.5626L31.8676 82.8444C45.0422 83.1743 75.179 83.6098 90.3288 82.7125C105.479 81.8151 111.905 69.1859 113.225 62.9834C114.721 57.6388 118.781 42.3966 123.057 24.1852C127.332 5.97385 116.04 1.0251 109.86 0.827148H83.6645Z" fill="#090A0A" stroke="black"/>
<path d="M36.4898 0.754883H14.9132L0.000976562 58.3583L17.6845 45.4256L21.4456 55.0592L41.1086 40.6748L37.2816 31.1072L78.8511 0.754883H47.8389L33.5865 11.3782L36.4898 0.754883Z" fill="#3053EC"/>
</svg>
