<svg width="700" height="690" viewBox="0 0 700 690" fill="none" xmlns="http://www.w3.org/2000/svg">
<path d="M449.97 116.07C449.97 116.07 448.703 109.995 446.583 92.4243L427.264 54.5516C427.264 54.5516 431.635 46.6186 441.491 63.4024C446.037 71.0512 461.16 67.7732 458.712 55.841C456.264 43.9088 440.617 38.3579 431.045 50.2463C431.045 50.2463 424.86 50.8801 424.139 46.0504C423.418 41.2207 437.383 29.2885 449.271 32.7633C454.116 34.2888 458.585 36.8209 462.383 40.1936C462.383 40.1936 459.805 0.375893 463.039 0.0262312C466.273 -0.32343 470.753 2.21163 473.201 45.7663C473.201 45.7663 474.556 11.3028 475.233 6.91019C475.911 2.51757 481.79 -0.45455 482.576 10.5816C482.576 11.8055 484.762 45.6789 484.762 45.6789C484.762 45.6789 488.63 23.2787 489.132 21.4867C490.225 16.7663 494.88 17.2689 495.339 23.5191C495.667 28.2614 497.197 48.4981 497.197 48.4981L500.125 110.803H500.518" fill="#FFBE9D"/>
<path d="M511.775 95.5044L439.221 93.625L432.009 269.199L349.926 233.184L349.795 233.468C344.856 231.282 340.551 229.315 338.256 228.048C292.909 203.331 263.144 200.315 214.476 217.689L121.247 255.016C103.196 263.517 56.2321 271.362 40.1258 345.622L37.9404 354.494L112.549 408.014L163.709 542.853L224.9 677.822L365.748 673.254L439.352 581.468L376.894 462.168L338.081 328.554C365.508 346.758 416.405 371.54 477.356 358.625C543.464 344.638 511.775 95.5044 511.775 95.5044Z" fill="#3053EC"/>
<g opacity="0.3">
<path d="M163.226 541.478C174.422 548.295 186.505 553.538 199.131 557.059C205.994 559.114 213.861 560.621 219.958 556.863C226.055 553.104 226.995 541.98 220.177 539.751L279.291 526.398C271.271 503.321 284.493 476.987 304.489 463.022C324.485 449.058 347.213 444.993 371.558 442.873L401.039 534.331L302.5 668.732L221.816 671.071L163.226 541.478Z" fill="black"/>
</g>
<path d="M132.302 415.14C132.302 415.14 95.3471 495.999 103.892 536.298C108.612 558.851 182.413 578.104 229.442 583.852L215.347 662.788C215.347 662.788 40.5158 646.157 7.84435 576.946C-10.7314 537.609 8.08473 441.452 43.4661 332.62L132.302 415.14Z" fill="#3053EC"/>
<path d="M300.62 509.832C300.232 510.104 299.814 510.331 299.375 510.509L295.681 512.214C292.469 513.7 287.77 515.733 281.935 518.18C270.265 523.032 253.919 529.282 235.54 535.183C217.161 541.083 200.224 545.498 187.898 548.295C181.736 549.715 176.731 550.786 173.256 551.442L169.257 552.185C168.801 552.308 168.331 552.375 167.858 552.381C168.293 552.192 168.747 552.053 169.213 551.966L173.169 551.005C176.622 550.218 181.583 549.016 187.724 547.508C199.984 544.47 216.833 539.925 235.19 534.046C253.547 528.167 269.894 522.048 281.629 517.372C287.508 515.055 292.229 513.132 295.507 511.777L299.266 510.247C299.701 510.061 300.155 509.922 300.62 509.832Z" fill="white"/>
<path d="M349.291 230.585C349.291 230.869 280.517 255.848 195.462 286.356C110.407 316.864 41.3272 341.362 41.2179 340.99C41.1086 340.619 109.992 315.727 195.069 285.219C280.146 254.712 349.182 230.279 349.291 230.585Z" fill="white"/>
<path d="M114.338 456.093C114.376 455.926 114.434 455.765 114.513 455.613L115.081 454.258L117.267 449.035C119.19 444.489 121.922 437.867 124.697 429.497C127.967 419.681 130.208 409.552 131.384 399.273C132.833 386.721 131.913 374.008 128.674 361.794C125.495 349.549 119.218 338.328 110.448 329.21C103.156 321.91 94.1909 316.501 84.3329 313.453C77.6797 311.422 70.6999 310.681 63.7685 311.268L60.5122 311.683C59.5725 311.814 58.8076 312.011 58.152 312.12L56.7097 312.404H56.207C56.207 312.404 56.36 312.404 56.666 312.251L58.1083 311.858C58.7421 311.705 59.5288 311.465 60.4685 311.29L63.7248 310.787C70.7215 310.018 77.8013 310.65 84.5515 312.645C94.6015 315.616 103.756 321.038 111.191 328.423C120.133 337.64 126.533 349.017 129.767 361.444C133.046 373.793 133.95 386.652 132.433 399.339C131.181 409.662 128.837 419.822 125.44 429.65C122.555 438.02 119.714 444.598 117.66 449.1C116.611 451.285 115.781 453.077 115.191 454.236L114.513 455.569C114.448 455.897 114.36 456.093 114.338 456.093Z" fill="#263238"/>
<path d="M289.934 212.38C290.37 212.51 290.789 212.694 291.18 212.926C292.355 213.509 293.486 214.173 294.567 214.915C298.581 217.627 302.143 220.953 305.123 224.771C309.495 230.467 312.987 236.788 315.482 243.522C318.452 251.737 320.984 260.104 323.065 268.588L335.237 314.481L338.778 328.446L339.696 332.248C339.832 332.688 339.912 333.143 339.936 333.603C339.735 333.192 339.581 332.76 339.477 332.314C339.193 331.33 338.821 330.128 338.363 328.555L334.451 314.7L321.972 268.807C319.568 259.846 317.361 251.323 314.498 243.806C312.08 237.148 308.708 230.876 304.489 225.186C301.609 221.378 298.185 218.013 294.327 215.199C291.573 213.32 289.869 212.467 289.934 212.38Z" fill="#263238"/>
<path d="M410.788 259.41L409.826 259.869L406.919 261.137L395.818 265.813C386.115 269.922 372.019 275.735 354.58 282.859C319.613 297.086 271.316 316.296 217.534 336.576C163.752 356.856 114.821 374.405 79.1337 386.84C61.3447 393.025 46.9212 397.942 36.9339 401.285L25.417 405.11L22.423 406.071L21.374 406.377L22.3793 405.962L25.3514 404.891L36.781 400.87L78.8715 386.075C114.384 373.531 163.337 355.873 217.141 335.593C270.945 315.312 319.329 296.256 354.274 282.182L395.643 265.486L406.898 260.94L409.848 259.782L410.788 259.41Z" fill="white"/>
<path d="M346.798 346.541L345.968 346.934L343.476 348.005L333.839 352.004C325.469 355.479 313.318 360.353 298.239 366.275C268.081 378.098 226.121 393.811 179.42 409.808C132.718 425.805 89.8188 439.026 58.8082 448.139C43.2701 452.685 30.6604 456.269 21.9189 458.651L11.8661 461.383L9.24366 462.06C8.95202 462.155 8.65196 462.221 8.34766 462.257C8.6234 462.133 8.90836 462.031 9.19995 461.951L11.8006 461.164L21.8096 458.28C30.5512 455.767 43.0734 452.051 58.5896 447.353C89.6002 438.065 132.303 424.712 179.048 408.737C225.793 392.762 267.731 377.158 297.955 365.51C313.056 359.697 325.25 354.933 333.664 351.589L343.389 347.787L345.924 346.825L346.798 346.541Z" fill="white"/>
<path d="M517.651 270.883C517.261 271.283 516.837 271.649 516.384 271.976L512.559 274.948C510.898 276.237 508.844 277.789 506.418 279.515C503.993 281.242 501.261 283.274 498.136 285.35C491.951 289.612 484.412 294.441 475.867 299.511C467.322 304.581 457.706 309.805 447.457 314.809C437.207 319.814 427.111 324.162 417.888 327.921C408.666 331.68 400.187 334.477 393.019 336.772C389.457 337.952 386.179 338.958 383.316 339.722C380.453 340.487 377.983 341.252 375.951 341.755L371.252 342.957C370.716 343.111 370.168 343.22 369.613 343.285C370.12 343.048 370.646 342.858 371.187 342.716L375.82 341.34C377.83 340.75 380.191 340.028 383.141 339.154C386.091 338.28 389.216 337.297 392.757 336.051C399.881 333.691 408.273 330.631 417.495 326.982C426.717 323.332 436.683 318.918 446.954 313.869C457.225 308.821 466.797 303.62 475.364 298.572C483.931 293.523 491.47 288.803 497.699 284.629C500.846 282.596 503.599 280.63 506.069 278.947C508.538 277.264 510.614 275.778 512.319 274.576L516.253 271.779C516.689 271.436 517.158 271.136 517.651 270.883Z" fill="white"/>
<path d="M521.061 212.576C521.171 212.882 501.109 220.946 476.261 230.606C451.413 240.265 431.155 247.848 431.045 247.542C430.936 247.236 450.976 239.194 475.846 229.535C500.715 219.875 520.952 212.292 521.061 212.576Z" fill="white"/>
<path d="M516.647 158.205C516.647 158.511 499.163 163.778 477.31 169.963C455.456 176.147 437.732 180.89 437.645 180.605C437.557 180.321 455.128 175.055 476.982 168.87C498.836 162.685 516.559 157.899 516.647 158.205Z" fill="white"/>
<path d="M512.8 105.012C512.8 105.318 495.819 109.383 474.73 113.951C453.642 118.518 436.508 122.102 436.443 121.796C436.377 121.49 453.401 117.425 474.49 112.858C495.579 108.29 512.712 104.706 512.8 105.012Z" fill="white"/>
<path d="M360.567 406.705C360.567 406.989 312.051 426.373 251.975 450.107C191.899 473.84 143.077 492.765 142.968 492.481C142.859 492.197 191.462 472.813 251.56 449.058C311.658 425.302 360.457 406.399 360.567 406.705Z" fill="white"/>
<path d="M103.478 502.927C103.169 503.123 102.839 503.285 102.495 503.408L99.5661 504.61C97.0092 505.615 93.294 507.035 88.6392 508.74C79.4169 512.149 66.5886 516.629 52.2962 521.175C38.0038 525.72 24.9352 529.501 15.4507 532.102C10.7084 533.369 6.84025 534.287 4.17408 535.03L1.09269 535.751C0.739465 535.865 0.371 535.924 0 535.926C0.322507 535.748 0.668183 535.616 1.02712 535.533L4.06482 534.593L15.2321 531.315C24.6511 528.561 37.6542 524.759 51.9466 520.126C66.239 515.493 79.0672 511.209 88.3551 507.997L99.282 504.216L102.276 503.211C102.656 503.045 103.063 502.948 103.478 502.927Z" fill="white"/>
<path d="M129.419 558.303C129.55 558.587 105.991 568.422 76.8164 580.266C47.6415 592.111 23.8645 601.486 23.7553 601.202C23.646 600.918 47.1826 591.062 76.3793 579.217C105.576 567.373 129.309 557.997 129.419 558.303Z" fill="white"/>
<path d="M172.317 573.601C172.558 573.82 159.336 589.467 142.815 608.568C126.293 627.668 112.678 642.987 112.438 642.791C112.197 642.594 125.419 626.925 141.94 607.825C158.462 588.724 172.077 573.405 172.317 573.601Z" fill="white"/>
<path d="M216.178 584.747C216.484 584.856 211.173 601.509 204.333 621.898C197.493 642.288 191.701 658.853 191.417 658.744C191.133 658.635 196.422 642.004 203.262 621.592C210.102 601.181 215.872 584.637 216.178 584.747Z" fill="white"/>
<path d="M502.901 338.849C503.032 339.133 490.466 344.334 474.841 350.453C459.215 356.572 446.431 361.271 446.431 360.987C446.431 360.703 458.887 355.502 474.513 349.383C490.138 343.264 502.77 338.543 502.901 338.849Z" fill="white"/>
<g opacity="0.3">
<path d="M316.379 247.545C336.659 302.464 373.199 333.168 424.796 360.704C394.283 357.322 365.041 346.608 339.566 329.475" fill="black"/>
</g>
<path d="M298 685.561H687.282V519.253C687.285 511.844 685.828 504.507 682.995 497.661C680.162 490.815 676.008 484.594 670.77 479.354C665.532 474.114 659.313 469.958 652.468 467.122C645.623 464.286 638.287 462.826 630.878 462.826H354.427C339.461 462.826 325.109 468.771 314.527 479.353C303.945 489.935 298 504.288 298 519.253V685.561Z" fill="#455A64"/>
<path d="M348.46 462.826H410.307C416.369 462.826 422.183 465.235 426.47 469.522C430.757 473.808 433.166 479.623 433.166 485.685V682.654C433.166 683.425 432.859 684.164 432.314 684.709C431.769 685.254 431.03 685.561 430.259 685.561H300.928C300.157 685.561 299.418 685.254 298.873 684.709C298.328 684.164 298.021 683.425 298.021 682.654V513.287C298.021 499.908 303.335 487.076 312.793 477.613C322.252 468.151 335.081 462.832 348.46 462.826Z" fill="#455A64"/>
<path d="M326.714 685.561V519.012C326.714 504.115 332.631 489.827 343.163 479.291C353.696 468.754 367.981 462.832 382.879 462.826H342.843C342.843 462.826 295.835 469.076 295.835 527.907C295.835 586.737 297.343 685.561 297.343 685.561H326.714Z" fill="#263238"/>
<path d="M433.165 669.736H106.56V688.268H433.165V669.736Z" fill="#263238"/>
<path d="M699.999 669.736H433.164V688.268H699.999V669.736Z" fill="#455A64"/>
<path d="M433.164 679.002C433.136 678.784 433.136 678.564 433.164 678.346C433.164 677.843 433.164 677.188 433.164 676.379C433.164 674.587 433.164 672.008 433.164 668.883C433.164 662.327 433.164 652.908 433.164 641.326C433.274 617.964 433.448 585.861 433.645 550.37C433.645 541.497 433.929 532.887 433.383 524.495C433.004 516.494 431.594 508.576 429.187 500.936C425.653 490.094 418.807 480.634 409.614 473.887C400.421 467.139 389.343 463.446 377.94 463.326C376.482 463.278 375.022 463.315 373.569 463.435C372.515 463.474 371.464 463.577 370.422 463.741L368.499 464.003H367.821L368.477 463.85L370.4 463.479C371.438 463.269 372.49 463.13 373.547 463.064C374.997 462.892 376.458 462.818 377.918 462.845C387.206 462.801 396.352 465.125 404.492 469.598C416.797 476.124 426.026 487.246 430.17 500.543C432.643 508.27 434.112 516.284 434.541 524.386C435.087 532.778 434.913 541.475 434.825 550.348C434.497 585.817 434.213 617.942 433.995 641.282C433.842 652.864 433.711 662.261 433.623 668.861C433.623 672.052 433.492 674.565 433.47 676.357V678.302C433.392 678.545 433.29 678.779 433.164 679.002Z" fill="#263238"/>
<path d="M698.166 669.28C698.166 669.586 637.369 669.958 562.41 670.089C487.452 670.22 426.654 670.089 426.654 669.739C426.654 669.39 487.408 669.062 562.41 668.931C637.413 668.8 698.166 668.974 698.166 669.28Z" fill="#263238"/>
<path d="M698.164 689.013C698.164 689.319 637.804 689.407 563.392 689.21C488.979 689.013 428.597 688.598 428.619 688.27C428.641 687.942 488.936 687.877 563.392 688.074C637.848 688.27 698.164 688.685 698.164 689.013Z" fill="#263238"/>
<path d="M663.022 648.584C663.022 648.584 663.022 648.3 663.022 647.797C663.022 647.294 663.022 646.486 663.022 645.502C663.022 643.47 663.022 640.52 663.022 636.761C663.022 629.09 662.912 617.923 662.847 603.805L663.175 604.155L488.497 604.373C488.737 604.133 487.907 604.942 489.043 603.805V648.605L488.475 648.059L613.042 648.3L649.778 648.452H659.7H662.279H663.175C662.898 648.474 662.621 648.474 662.344 648.452H659.831H650.041L613.435 648.605L488.475 648.868H487.929V648.3C487.929 641.015 487.929 633.657 487.929 626.227V603.499C489.065 602.363 488.257 603.193 488.519 602.931L663.197 603.15H663.546V603.499C663.546 617.704 663.393 628.937 663.35 636.673C663.35 640.461 663.35 643.375 663.35 645.415C663.35 646.355 663.35 647.098 663.35 647.6C663.282 647.94 663.171 648.271 663.022 648.584Z" fill="#263238"/>
<path d="M564.377 615.299V635.295H562.345V619.342L554.521 632.76H553.516L545.692 619.429V635.295H543.682V615.364H545.408L554.15 630.138L562.716 615.364L564.377 615.299Z" fill="#263238"/>
<path d="M583.367 629.897H572.265L569.861 635.23H567.676L576.789 615.299H578.865L587.978 635.23H585.793L583.367 629.897ZM582.602 628.193L577.816 617.484L573.03 628.193H582.602Z" fill="#263238"/>
<path d="M591.277 615.299H593.463V635.295H591.277V615.299Z" fill="#263238"/>
<path d="M599.888 615.299H602.073V633.394H613.24V635.295H599.975L599.888 615.299Z" fill="#263238"/>
<path d="M640.581 417.238V384.457H579.39V515.886C574.436 518.814 570.595 523.304 568.47 528.652C566.345 534 566.058 539.902 567.652 545.431C569.247 550.96 572.633 555.803 577.279 559.199C581.925 562.594 587.567 564.35 593.32 564.19C599.072 564.03 604.608 561.964 609.058 558.315C613.508 554.667 616.62 549.643 617.905 544.034C619.19 538.425 618.575 532.548 616.156 527.326C613.738 522.105 609.653 517.834 604.544 515.187V417.238H640.581Z" fill="#3053EC"/>
<path d="M593.244 547.836C598.772 547.836 603.253 543.355 603.253 537.827C603.253 532.3 598.772 527.818 593.244 527.818C587.717 527.818 583.235 532.3 583.235 537.827C583.235 543.355 587.717 547.836 593.244 547.836Z" fill="#263238"/>
<path d="M217.249 218.5C217.474 218.928 217.664 219.374 217.817 219.833C218.327 221.139 218.757 222.475 219.106 223.832C220.394 228.823 220.896 233.985 220.592 239.13C220.159 246.803 217.984 254.277 214.233 260.984C209.549 269.242 202.406 275.835 193.8 279.844C185.222 283.956 175.523 285.109 166.22 283.122C158.707 281.379 151.755 277.772 146.005 272.632C142.148 269.18 138.891 265.11 136.368 260.59C135.681 259.376 135.068 258.12 134.532 256.832C134.309 256.395 134.14 255.933 134.029 255.455C134.16 255.455 134.882 257.291 136.761 260.372C139.385 264.744 142.682 268.675 146.53 272.02C152.228 276.977 159.07 280.439 166.439 282.095C175.518 283.974 184.964 282.815 193.319 278.795C201.718 274.886 208.707 268.483 213.337 260.459C217.057 253.883 219.26 246.558 219.784 239.021C220.165 233.938 219.79 228.827 218.669 223.854C217.882 220.401 217.118 218.544 217.249 218.5Z" fill="#263238"/>
<path d="M403.27 556.796L433.1 556.402L431.942 657.739L404.253 658.831L403.27 556.796Z" fill="#EBEBEB"/>
<path d="M404.254 658.832C408.337 653.555 412.715 648.514 417.366 643.731C421.778 638.686 426.478 633.899 431.44 629.395C427.302 634.664 422.881 639.705 418.197 644.496C413.817 649.528 409.162 654.314 404.254 658.832Z" fill="#263238"/>
<path d="M433.099 590.539C427.733 585.392 422.627 579.981 417.802 574.324C412.681 568.926 407.845 563.265 403.312 557.365C408.685 562.506 413.791 567.918 418.61 573.581C423.723 578.986 428.559 584.646 433.099 590.539Z" fill="#263238"/>
<path d="M179.79 112.333C179.79 113.872 180.241 115.377 181.088 116.662C181.935 117.948 183.14 118.956 184.554 119.563C185.969 120.17 187.53 120.349 189.045 120.078C190.56 119.807 191.962 119.097 193.077 118.037C197.295 114.037 195.853 107.001 193.23 101.799C190.608 96.5981 186.98 91.3313 187.745 85.5837C188.335 81.213 191.395 77.5634 193.449 73.6078C195.268 70.1751 196.264 66.3667 196.359 62.483C196.454 58.5994 195.645 54.7468 193.995 51.2295C192.258 47.7501 189.595 44.8175 186.298 42.7546C183.001 40.6917 179.199 39.5786 175.31 39.5377C167.421 39.6907 159.095 44.6296 152.08 41.0019C146.988 38.3576 144.868 32.2604 140.432 28.5015C133.591 22.8413 123.254 24.7208 115.147 28.5015C107.039 32.2822 99.2808 37.5053 90.3862 37.9424C82.9778 38.292 75.8534 35.1888 68.5324 34.1835C60.5101 33.1016 52.35 34.5464 45.1869 38.3172C38.0239 42.0879 32.2139 47.9971 28.5649 55.2229C24.9159 62.4488 23.6093 70.6321 24.8268 78.635C26.0444 86.6378 29.7255 94.0624 35.3583 99.8761C39.2726 104.21 44.5881 107.026 50.3719 107.831" fill="#263238"/>
<path d="M189.691 279.341C178.571 283.007 166.452 282.114 155.989 276.858C145.526 271.602 137.575 262.412 133.876 251.303C129.506 238.06 125.769 226.914 125.769 226.914C125.769 226.914 90.584 232.29 79.5697 198.876C68.5554 165.461 51.1597 91.1143 51.1597 91.1143L50.0889 86.6124C83.6564 57.6561 131.385 52.8264 173.017 68.0148L175.202 74.9425L218.91 226.411C221.666 237.295 220.181 248.819 214.755 258.648C209.33 268.477 200.369 275.874 189.691 279.341Z" fill="#FFBE9D"/>
<path d="M80.5964 140.393C81.4366 139.776 82.07 138.919 82.4131 137.934C82.7563 136.95 82.793 135.884 82.5185 134.879C82.244 133.873 81.6711 132.974 80.8754 132.3C80.0797 131.627 79.0986 131.21 78.0613 131.105C76.8215 130.953 75.572 131.299 74.5866 132.067C73.7311 132.678 73.0828 133.536 72.7285 134.526C72.3742 135.515 72.3308 136.59 72.6042 137.605C72.8776 138.62 73.4547 139.528 74.2582 140.206C75.0616 140.884 76.0531 141.3 77.0998 141.399C77.7201 141.469 78.3483 141.417 78.9483 141.245C79.5484 141.072 80.1084 140.783 80.5964 140.393Z" fill="#263238"/>
<path d="M66.6329 136.2C67.3541 136.615 69.8454 133.031 74.4566 131.545C79.0677 130.059 83.1981 131.392 83.4822 130.649C83.657 130.299 82.8047 129.425 80.9909 128.769C78.5743 127.966 75.964 127.957 73.5419 128.743C71.1197 129.53 69.0127 131.071 67.5289 133.14C66.4581 134.845 66.3051 136.025 66.6329 136.2Z" fill="#263238"/>
<path d="M123.015 121.73C122.354 122.495 121.934 123.439 121.809 124.443C121.684 125.447 121.859 126.465 122.313 127.369C122.767 128.273 123.478 129.022 124.358 129.521C125.238 130.021 126.245 130.248 127.254 130.175C128.263 130.102 129.227 129.731 130.026 129.109C130.824 128.488 131.419 127.643 131.738 126.683C132.056 125.723 132.082 124.69 131.813 123.715C131.544 122.74 130.992 121.867 130.227 121.205C129.198 120.324 127.864 119.885 126.513 119.983C125.162 120.081 123.905 120.709 123.015 121.73Z" fill="#263238"/>
<path d="M116.895 124.943C117.594 125.358 120.085 121.796 124.696 120.31C129.307 118.824 133.438 120.157 133.744 119.392C133.919 119.064 133.066 118.168 131.252 117.534C128.836 116.731 126.226 116.722 123.803 117.508C121.381 118.294 119.274 119.835 117.791 121.905C116.72 123.566 116.545 124.768 116.895 124.943Z" fill="#263238"/>
<path d="M110.406 168.912C110.406 168.563 107.281 168.912 102.451 169.743C101.205 170.005 100.134 170.049 99.8066 169.371C99.3605 168.169 99.2769 166.862 99.5662 165.612C99.7847 162.203 100.003 158.707 100.244 155.057C101.052 140.087 101.14 127.936 100.44 127.893C99.741 127.849 98.4735 139.956 97.643 154.926C97.4682 158.575 97.3152 162.05 97.1622 165.481C96.8738 167.262 97.1973 169.088 98.0801 170.661C98.3888 171.06 98.787 171.38 99.2426 171.597C99.6982 171.813 100.198 171.919 100.703 171.906C101.445 171.886 102.181 171.761 102.888 171.535C107.587 170.245 110.471 169.262 110.406 168.912Z" fill="#263238"/>
<path d="M127.014 169.283C130.926 164.913 116.087 180.494 106.449 183.008C108.78 184.943 111.7 186.029 114.729 186.089C117.758 186.148 120.718 185.178 123.124 183.335C131.996 176.495 127.014 169.283 127.014 169.283Z" fill="white"/>
<path d="M125.572 226.453C141.145 221.853 154.998 212.724 165.368 200.229C165.368 200.229 162.658 227.633 128.217 235.195L125.572 226.453Z" fill="#EB996E"/>
<path d="M180.054 97.8442C180.731 97.3634 204.464 88.0537 209.382 117.622C214.299 147.19 182.807 142.339 182.611 141.508C182.414 140.678 180.054 97.8442 180.054 97.8442Z" fill="#FFBE9D"/>
<path d="M189.953 129.641C189.953 129.51 190.521 129.904 191.461 130.166C192.775 130.478 194.159 130.274 195.329 129.598C198.257 127.937 200.049 122.539 199.328 117.207C198.976 114.657 198.066 112.217 196.662 110.06C196.227 109.184 195.587 108.426 194.795 107.851C194.003 107.277 193.084 106.902 192.116 106.76C191.498 106.702 190.88 106.862 190.368 107.214C189.857 107.566 189.485 108.086 189.319 108.684C189.057 109.558 189.319 110.126 189.319 110.192C189.319 110.257 188.598 109.82 188.62 108.552C188.675 107.79 188.983 107.067 189.494 106.498C190.205 105.755 191.176 105.317 192.204 105.274C193.457 105.316 194.679 105.677 195.754 106.324C196.828 106.97 197.72 107.88 198.345 108.968C199.961 111.341 200.981 114.07 201.317 116.923C202.125 122.889 200.005 128.986 195.941 130.909C195.185 131.278 194.356 131.47 193.515 131.47C192.674 131.47 191.845 131.278 191.089 130.909C190.128 130.341 189.865 129.707 189.953 129.641Z" fill="#EB996E"/>
<path d="M47.313 107.328C47.313 107.328 70.4999 111.502 93.3809 90.7848C108.373 77.1917 127.517 67.2263 133.002 69.4773C138.487 71.7282 144.431 89.4517 163.204 89.8451C163.204 89.8451 171.618 124.483 184.948 119.435C198.279 114.387 174.852 63.6423 174.852 63.6423L137.242 49.8525L98.8006 53.1962L59.7697 68.9528L40.7568 89.2332L47.313 107.328Z" fill="#263238"/>
<path d="M169.259 34.3154C166.758 35.2501 164.368 36.4595 162.134 37.9213C160.115 39.6753 158.304 41.6551 156.736 43.8219C157.531 41.1058 159.177 38.7164 161.431 37.0052C163.685 35.294 166.429 34.3512 169.259 34.3154Z" fill="#263238"/>
<path d="M151.402 24.7197C152.104 25.5732 152.638 26.552 152.975 27.6044C154.021 30.0527 154.755 32.6224 155.161 35.2533C155.567 37.8964 155.493 40.5912 154.942 43.2081C154.818 44.3188 154.429 45.3833 153.806 46.3113C154.317 42.691 154.391 39.0223 154.024 35.3844C153.107 29.4402 151.052 24.8508 151.402 24.7197Z" fill="#263238"/>
<path d="M241.222 555.267L392.56 527.119L415.178 629.395L258.005 655.926L241.222 555.267Z" fill="#E0E0E0"/>
<path d="M392.56 527.119C392.56 527.119 392.56 527.272 392.297 527.534L391.445 528.736L388.08 533.238L375.492 549.694C364.696 563.637 349.879 582.803 333.379 604.088L333.095 604.46L332.68 604.241L329.73 602.69L267.031 569.363L248.106 559.135L242.97 556.316L241.659 555.551C241.5 555.469 241.353 555.366 241.222 555.245L241.702 555.442L243.079 556.097L248.302 558.807C252.913 561.189 259.404 564.577 267.424 568.707L330.254 601.684L333.183 603.236L332.461 603.389L374.836 549.213L387.708 532.954C389.216 531.118 390.396 529.654 391.248 528.583C391.642 528.146 391.948 527.775 392.188 527.469L392.56 527.119Z" fill="#263238"/>
<path d="M258.007 655.925C257.745 655.75 267.47 640.321 279.752 621.462C292.034 602.602 302.174 587.435 302.436 587.61C302.698 587.785 292.973 603.214 280.582 622.073C268.191 640.933 258.269 656.1 258.007 655.925Z" fill="#263238"/>
<path d="M415.179 629.396C414.983 629.636 400.821 618.797 383.557 605.182C366.292 591.567 352.459 580.334 352.655 580.094C352.852 579.853 366.992 590.671 384.278 604.286C401.564 617.901 415.485 629.134 415.179 629.396Z" fill="#263238"/>
<path d="M245.201 578.083C245.201 578.083 246.271 597.904 255.822 597.751C265.372 597.598 299.07 579.198 302.982 585.579C306.894 591.96 296.557 600.877 296.557 600.877C296.557 600.877 308.424 600.702 304.009 607.804C299.595 614.907 286.373 648.168 274.157 651.293C256.674 655.773 216.179 657.522 216.179 657.522L228.657 587.873L245.201 578.083Z" fill="#FFBE9D"/>
<path d="M300.228 596.571C299.863 597.093 299.438 597.57 298.961 597.992C298.087 598.844 296.775 600.046 295.114 601.445C286.371 608.773 276.525 614.673 265.94 618.928C263.907 619.736 262.246 620.326 261.088 620.698C260.495 620.941 259.869 621.096 259.23 621.157C261.303 620.037 263.441 619.045 265.634 618.185C275.942 613.508 285.668 607.641 294.612 600.702C296.396 599.21 298.272 597.83 300.228 596.571Z" fill="#EB996E"/>
<path d="M299.662 616.195C298.743 618.011 297.573 619.689 296.187 621.178C289.786 628.735 281.489 634.453 272.148 637.743C270.259 638.512 268.273 639.02 266.247 639.251C268.076 638.415 269.951 637.685 271.863 637.066C280.85 633.43 288.918 627.847 295.487 620.719C296.799 619.139 298.192 617.629 299.662 616.195Z" fill="#EB996E"/>
<g clip-path="url(#clip0_2630_22253)">
<path d="M304.844 273.72C300.026 261.349 286.091 255.225 273.72 260.043C261.348 264.861 255.225 278.796 260.043 291.167C264.861 303.539 278.796 309.662 291.167 304.844C303.538 300.026 309.662 286.091 304.844 273.72Z" fill="#E9EBFD"/>
<path d="M283.704 271.331L279.093 278.591L289.892 274.368C290.137 277.184 290.855 282.94 290.882 283.6C290.907 284.187 290.581 284.399 290.285 284.514L281.328 288.002L278.213 284.636L275.069 289.588L279.256 294.222C282.236 293.146 289.025 290.615 292.34 289.092C295.656 287.57 295.994 284.18 295.748 282.675C295.617 281.348 295.197 277.579 294.566 273.127C293.935 268.674 290.974 268.551 289.572 269.046L283.704 271.331Z" fill="#090A0A"/>
<path d="M273.131 275.43L268.297 277.312L269.982 291.517L272.815 287.077L274.498 288.907L277.648 283.97L275.956 282.16L282.62 271.735L275.673 274.44L273.407 278.063L273.131 275.43Z" fill="#3053EC"/>
</g>
<defs>
<clipPath id="clip0_2630_22253">
<rect width="48.0784" height="48.0784" fill="white" transform="translate(251.319 268.767) rotate(-21.2777)"/>
</clipPath>
</defs>
</svg>
