<svg width="300" height="300" viewBox="0 0 300 300" fill="none" xmlns="http://www.w3.org/2000/svg">
<g clip-path="url(#clip0_2635_22003)">
<path d="M300 150C300 67.1573 232.843 0 150 0C67.1573 0 0 67.1573 0 150C0 232.843 67.1573 300 150 300C232.843 300 300 232.843 300 150Z" fill="#E9EBFD"/>
<path d="M191.766 70.6143L136.174 111.45L229.166 111.322C222.806 133.076 211.422 178.184 209.703 183.197C208.176 187.65 205.123 188.286 202.579 188.286H125.487L111.634 152.086L74.0938 179.291L91.9035 228.74C117.304 229.376 175.406 230.216 204.614 228.485C233.822 226.756 246.213 202.407 248.757 190.449C251.64 180.145 259.468 150.758 267.712 115.648C275.955 80.5369 254.185 70.9958 242.269 70.6143H191.766Z" fill="#090A0A"/>
<path d="M100.818 70.4775H59.2189L30.4688 181.534L64.5618 156.6L71.813 175.174L109.722 147.441L102.344 128.996L182.488 70.4775H122.698L95.22 90.9588L100.818 70.4775Z" fill="#3053EC"/>
</g>
<defs>
<clipPath id="clip0_2635_22003">
<rect width="300" height="300" fill="white"/>
</clipPath>
</defs>
</svg>
