<svg width="541" height="84" viewBox="0 0 541 84" fill="none" xmlns="http://www.w3.org/2000/svg">
<path d="M83.6635 1.07227L54.8288 22.2529L103.063 22.1869C99.7634 33.4701 93.8589 56.8667 92.9672 59.4675C92.1754 61.7769 90.5918 62.1068 89.2721 62.1068H49.2862L42.2919 44.3573L22.6289 58.8077L31.8666 83.0895C45.0413 83.4195 75.178 83.8549 90.3278 82.9576C105.478 82.0602 111.904 69.431 113.224 63.2286C114.72 57.8839 118.78 42.6418 123.056 24.4304C127.331 6.21897 116.039 1.27022 109.859 1.07227H83.6635Z" fill="#090A0A" stroke="black"/>
<path d="M36.4888 1H14.9122L0 58.6034L17.6835 45.6707L21.4446 55.3043L41.1076 40.9199L37.2806 31.3523L78.8501 1H47.8379L33.5855 11.6233L36.4888 1Z" fill="#3053EC"/>
<path d="M154.336 76C153.602 76 152.969 75.7333 152.436 75.2C151.902 74.6667 151.636 74.0333 151.636 73.3V8.7C151.636 7.96666 151.902 7.33333 152.436 6.8C152.969 6.26666 153.602 6 154.336 6H173.436C174.169 6 174.802 6.26666 175.336 6.8C175.869 7.33333 176.136 7.96666 176.136 8.7V28.5L187.436 8.2C187.769 7.66666 188.236 7.16666 188.836 6.7C189.502 6.23333 190.369 6 191.436 6H213.536C214.136 6 214.636 6.23333 215.036 6.7C215.502 7.1 215.736 7.6 215.736 8.2C215.736 8.6 215.636 8.96666 215.436 9.29999L197.436 39.5L217.136 72.7C217.336 72.9667 217.436 73.3333 217.436 73.8C217.436 74.4 217.202 74.9333 216.736 75.4C216.336 75.8 215.836 76 215.236 76H192.436C191.102 76 190.102 75.7 189.436 75.1C188.836 74.4333 188.469 73.9667 188.336 73.7L176.136 51.9V73.3C176.136 74.0333 175.869 74.6667 175.336 75.2C174.802 75.7333 174.169 76 173.436 76H154.336ZM224.82 76C224.087 76 223.453 75.7333 222.92 75.2C222.387 74.6667 222.12 74.0333 222.12 73.3V26.7C222.12 25.9667 222.387 25.3333 222.92 24.8C223.453 24.2667 224.087 24 224.82 24H242.72C243.453 24 244.087 24.2667 244.62 24.8C245.153 25.3333 245.42 25.9667 245.42 26.7V73.3C245.42 74.0333 245.153 74.6667 244.62 75.2C244.087 75.7333 243.453 76 242.72 76H224.82ZM225.32 18.5C224.587 18.5 223.953 18.2333 223.42 17.7C222.887 17.1667 222.62 16.5333 222.62 15.8V3.7C222.62 2.96666 222.887 2.33333 223.42 1.8C223.953 1.26666 224.587 0.999994 225.32 0.999994H242.22C242.953 0.999994 243.587 1.26666 244.12 1.8C244.653 2.33333 244.92 2.96666 244.92 3.7V15.8C244.92 16.5333 244.653 17.1667 244.12 17.7C243.587 18.2333 242.953 18.5 242.22 18.5H225.32ZM281.726 77C276.659 77 272.059 76.1333 267.926 74.4C263.792 72.6 260.459 70 257.926 66.6C255.392 63.2 253.992 59.0333 253.726 54.1C253.659 53.0333 253.626 51.7 253.626 50.1C253.626 48.5 253.659 47.1333 253.726 46C253.992 41.0667 255.359 36.9 257.826 33.5C260.359 30.0333 263.692 27.4333 267.826 25.7C272.026 23.9 276.659 23 281.726 23C286.992 23 291.459 23.7667 295.126 25.3C298.859 26.7667 301.859 28.6 304.126 30.8C306.459 32.9333 308.159 35.0667 309.226 37.2C310.359 39.3333 310.959 41.0667 311.026 42.4C311.092 43.1333 310.826 43.7667 310.226 44.3C309.692 44.8333 309.059 45.1 308.326 45.1H288.826C288.092 45.1 287.492 44.9333 287.026 44.6C286.626 44.2 286.259 43.7 285.926 43.1C285.459 42.1667 284.959 41.4333 284.426 40.9C283.959 40.3667 283.226 40.1 282.226 40.1C280.692 40.1 279.659 40.6667 279.126 41.8C278.592 42.9333 278.292 44.5 278.226 46.5C278.159 49.3667 278.159 51.7333 278.226 53.6C278.359 55.7333 278.659 57.3333 279.126 58.4C279.659 59.4 280.692 59.9 282.226 59.9C283.426 59.9 284.226 59.6333 284.626 59.1C285.092 58.5667 285.526 57.8333 285.926 56.9C286.192 56.3 286.559 55.8333 287.026 55.5C287.492 55.1 288.092 54.9 288.826 54.9H308.326C309.059 54.9 309.692 55.1667 310.226 55.7C310.826 56.2333 311.092 56.8667 311.026 57.6C310.959 58.4667 310.592 59.7 309.926 61.3C309.326 62.8333 308.326 64.5 306.926 66.3C305.592 68.1 303.792 69.8333 301.526 71.5C299.259 73.1 296.492 74.4333 293.226 75.5C289.959 76.5 286.126 77 281.726 77ZM320.133 76C319.399 76 318.766 75.7333 318.233 75.2C317.699 74.6667 317.433 74.0333 317.433 73.3V7.7C317.433 6.96667 317.699 6.33333 318.233 5.8C318.766 5.26666 319.399 5 320.133 5H337.633C338.366 5 338.999 5.26666 339.533 5.8C340.066 6.33333 340.333 6.96667 340.333 7.7V40.1L349.133 25.7C349.266 25.4333 349.566 25.1 350.033 24.7C350.499 24.2333 351.166 24 352.033 24H372.233C372.899 24 373.466 24.2333 373.933 24.7C374.399 25.1667 374.633 25.7333 374.633 26.4C374.633 26.6667 374.566 26.9667 374.433 27.3C374.366 27.5667 374.266 27.7667 374.133 27.9L360.433 47.4L376.633 72.3C376.899 72.7 377.033 73.1333 377.033 73.6C377.033 74.2667 376.799 74.8333 376.333 75.3C375.866 75.7667 375.299 76 374.633 76H353.633C352.633 76 351.899 75.7667 351.433 75.3C350.966 74.7667 350.666 74.4333 350.533 74.3L340.333 57.3V73.3C340.333 74.0333 340.066 74.6667 339.533 75.2C338.999 75.7333 338.366 76 337.633 76H320.133Z" fill="#3053EC"/>
<path d="M413.314 77C406.781 77 401.047 76 396.114 74C391.247 72 387.381 69 384.514 65C381.714 60.9333 380.181 55.9333 379.914 50C379.847 47.2667 379.814 44.3667 379.814 41.3C379.814 38.2333 379.847 35.2667 379.914 32.4C380.181 26.5333 381.714 21.5667 384.514 17.5C387.314 13.4333 391.181 10.3333 396.114 8.2C401.047 6.06666 406.781 5 413.314 5C419.847 5 425.581 6.06666 430.514 8.2C435.447 10.3333 439.314 13.4333 442.114 17.5C444.981 21.5667 446.514 26.5333 446.714 32.4C446.847 35.2667 446.914 38.2333 446.914 41.3C446.914 44.3667 446.847 47.2667 446.714 50C446.447 55.9333 444.881 60.9333 442.014 65C439.214 69 435.347 72 430.414 74C425.547 76 419.847 77 413.314 77ZM413.314 57.5C415.514 57.5 417.281 56.8667 418.614 55.6C419.947 54.2667 420.647 52.2 420.714 49.4C420.847 46.5333 420.914 43.7 420.914 40.9C420.914 38.1 420.847 35.3333 420.714 32.6C420.647 30.7333 420.281 29.2 419.614 28C419.014 26.8 418.181 25.9333 417.114 25.4C416.047 24.8 414.781 24.5 413.314 24.5C411.914 24.5 410.647 24.8 409.514 25.4C408.447 25.9333 407.581 26.8 406.914 28C406.314 29.2 405.981 30.7333 405.914 32.6C405.847 35.3333 405.814 38.1 405.814 40.9C405.814 43.7 405.847 46.5333 405.914 49.4C406.047 52.2 406.747 54.2667 408.014 55.6C409.347 56.8667 411.114 57.5 413.314 57.5ZM464.233 76C463.499 76 462.866 75.7333 462.333 75.2C461.799 74.6667 461.533 74.0333 461.533 73.3V41.5H454.633C453.899 41.5 453.266 41.2333 452.733 40.7C452.199 40.1667 451.933 39.5333 451.933 38.8V26.7C451.933 25.9667 452.199 25.3333 452.733 24.8C453.266 24.2667 453.899 24 454.633 24H461.533V22.3C461.533 16.8333 462.699 12.6333 465.033 9.7C467.366 6.76666 470.499 4.76666 474.433 3.7C478.366 2.56666 482.733 2 487.533 2H496.833C497.566 2 498.199 2.26666 498.733 2.79999C499.266 3.33333 499.533 3.96666 499.533 4.69999V16.8C499.533 17.5333 499.266 18.1667 498.733 18.7C498.199 19.2333 497.566 19.5 496.833 19.5H488.733C487.266 19.5 486.166 19.8 485.433 20.4C484.766 20.9333 484.433 21.7333 484.433 22.8V24H502.733V22.3C502.733 16.8333 503.899 12.6333 506.233 9.7C508.566 6.76666 511.699 4.76666 515.633 3.7C519.566 2.56666 523.933 2 528.733 2H538.033C538.766 2 539.399 2.26666 539.933 2.79999C540.466 3.33333 540.733 3.96666 540.733 4.69999V16.8C540.733 17.5333 540.466 18.1667 539.933 18.7C539.399 19.2333 538.766 19.5 538.033 19.5H529.933C528.466 19.5 527.366 19.8 526.633 20.4C525.966 20.9333 525.633 21.7333 525.633 22.8V24H537.033C537.766 24 538.399 24.2667 538.933 24.8C539.466 25.3333 539.733 25.9667 539.733 26.7V38.8C539.733 39.5333 539.466 40.1667 538.933 40.7C538.399 41.2333 537.766 41.5 537.033 41.5H525.633V73.3C525.633 74.0333 525.366 74.6667 524.833 75.2C524.299 75.7333 523.666 76 522.933 76H505.433C504.699 76 504.066 75.7333 503.533 75.2C502.999 74.6667 502.733 74.0333 502.733 73.3V41.5H484.433V73.3C484.433 74.0333 484.166 74.6667 483.633 75.2C483.099 75.7333 482.466 76 481.733 76H464.233Z" fill="#090A0A"/>
</svg>
